<?xml version="1.0" encoding="UTF-8"?>
<svg version="1.1" xmlns="http://www.w3.org/2000/svg" width="100" height="100">
<path d="M0 0 C1.61995125 -0.0099852 1.61995125 -0.0099852 3.27262878 -0.02017212 C5.55291039 -0.03027602 7.83322143 -0.03498984 10.11352539 -0.03466797 C13.58334658 -0.03903466 17.05188849 -0.07536217 20.52148438 -0.11328125 C22.74348526 -0.11915132 24.96549215 -0.12311944 27.1875 -0.125 C28.21591507 -0.13937103 29.24433014 -0.15374207 30.3039093 -0.16854858 C37.90869791 -0.12084763 44.13058286 1.32533215 50.09765625 6.23046875 C50.87496094 7.17986328 50.87496094 7.17986328 51.66796875 8.1484375 C52.20164062 8.77363281 52.7353125 9.39882812 53.28515625 10.04296875 C57.7797268 16.8779763 58.26014296 22.57701119 58.26171875 30.60546875 C58.27313904 32.21974007 58.27313904 32.21974007 58.28479004 33.86662292 C58.295563 36.13672576 58.2984556 38.40687804 58.29394531 40.67700195 C58.29297469 44.12731795 58.33459665 47.57539612 58.37890625 51.02539062 C58.38411528 53.23957874 58.38680141 55.45377451 58.38671875 57.66796875 C58.40311401 58.68808548 58.41950928 59.70820221 58.43640137 60.75923157 C58.36145301 68.63379779 56.45742739 75.33369303 51.03747559 81.25325012 C43.96594735 87.89110291 36.87213 88.80285258 27.5234375 88.8046875 C26.44725662 88.81230103 25.37107574 88.81991455 24.26228333 88.82775879 C21.99218049 88.83853175 19.72202821 88.84142435 17.4519043 88.83691406 C14.0015883 88.83594344 10.55351013 88.8775654 7.10351562 88.921875 C4.88932751 88.92708403 2.67513174 88.92977016 0.4609375 88.9296875 C-0.55917923 88.94608276 -1.57929596 88.96247803 -2.63032532 88.97937012 C-10.86233724 88.90101967 -17.28132987 86.60106412 -23.64453125 81.30859375 C-24.16015625 80.67824219 -24.67578125 80.04789062 -25.20703125 79.3984375 C-25.74328125 78.77066406 -26.27953125 78.14289063 -26.83203125 77.49609375 C-30.72026644 71.3875879 -30.52791414 65.12633803 -30.54296875 58.12890625 C-30.54962555 57.04893875 -30.55628235 55.96897125 -30.56314087 54.85627747 C-30.57324477 52.57599586 -30.57795859 50.29568482 -30.57763672 48.01538086 C-30.58200341 44.54555967 -30.61833092 41.07701776 -30.65625 37.60742188 C-30.66212007 35.38542099 -30.66608819 33.1634141 -30.66796875 30.94140625 C-30.68233978 29.91299118 -30.69671082 28.88457611 -30.71151733 27.82499695 C-30.66265391 20.03487944 -29.13739116 13.82572975 -24.05859375 7.77734375 C-23.32382812 7.15730469 -22.5890625 6.53726562 -21.83203125 5.8984375 C-21.10242187 5.26035156 -20.3728125 4.62226563 -19.62109375 3.96484375 C-13.46885898 -0.18642146 -7.15777897 0.01539959 0 0 Z M-21.20703125 12.3359375 C-25.91440755 19.16571467 -26.36259041 26.35937224 -26.375 34.48046875 C-26.3783284 35.24969162 -26.3816568 36.01891449 -26.38508606 36.81144714 C-26.39012749 38.43264167 -26.39249525 40.05384647 -26.39233398 41.67504883 C-26.39451536 44.13054881 -26.4126865 46.58559523 -26.43164062 49.04101562 C-26.67926256 64.2875104 -26.67926256 64.2875104 -19.98046875 77.609375 C-13.33815662 84.07611941 -4.91183395 84.49038386 3.9375 84.50390625 C4.70672287 84.50723465 5.47594574 84.51056305 6.26847839 84.51399231 C7.88967292 84.51903374 9.51087772 84.5214015 11.13208008 84.52124023 C13.58758006 84.52342161 16.04262648 84.54159275 18.49804688 84.56054688 C33.74454165 84.80816881 33.74454165 84.80816881 47.06640625 78.109375 C53.53315066 71.46706287 53.94741511 63.0407402 53.9609375 54.19140625 C53.9642659 53.42218338 53.9675943 52.65296051 53.97102356 51.86042786 C53.97606499 50.23923333 53.97843275 48.61802853 53.97827148 46.99682617 C53.98045286 44.54132619 53.998624 42.08627977 54.01757812 39.63085938 C54.26520006 24.3843646 54.26520006 24.3843646 47.56640625 11.0625 C40.92409412 4.59575559 32.49777145 4.18149114 23.6484375 4.16796875 C22.87921463 4.16464035 22.10999176 4.16131195 21.31745911 4.15788269 C19.69626458 4.15284126 18.07505978 4.1504735 16.45385742 4.15063477 C13.99835744 4.14845339 11.54331102 4.13028225 9.08789062 4.11132812 C-7.48303409 3.87650386 -7.48303409 3.87650386 -21.20703125 12.3359375 Z " fill="#FFFFFF" transform="translate(36.20703125,5.6640625)"/>
<path d="M0 0 C5.46185727 2.83716614 10.82235739 8.54519718 12.76953125 14.38671875 C13.89537018 29.07799392 13.89537018 29.07799392 8.76953125 35.38671875 C3.18010234 40.95021063 -0.97647382 43.67432444 -9.04296875 43.76171875 C-16.15465427 43.63643517 -19.80711505 42.82603214 -24.90625 37.703125 C-30.71801155 31.25331803 -31.75049626 26.60900132 -31.60546875 17.87109375 C-30.80064754 10.39296336 -26.46598913 6.15467345 -20.87890625 1.515625 C-15.42689486 -2.21809844 -6.1398686 -1.68819504 0 0 Z M-23.54296875 11.01171875 C-27.18066597 16.13144077 -26.80816734 21.25669481 -26.23046875 27.38671875 C-24.07109237 31.86542531 -21.30093936 34.56870063 -17.23046875 37.38671875 C-11.83127018 39.18645161 -6.2948961 39.08784502 -0.91796875 37.26171875 C3.20796317 34.38316159 6.14740776 31.25308922 7.76953125 26.38671875 C8.30375229 20.41782594 8.30259847 15.45078177 4.76953125 10.38671875 C0.34854332 6.04825593 -2.79056124 4.22049766 -8.98046875 4.07421875 C-15.81147582 4.13958724 -19.02652493 5.88494469 -23.54296875 11.01171875 Z " fill="#FFFFFF" transform="translate(59.23046875,28.61328125)"/>
<path d="M0 0 C3 0.125 3 0.125 4 1.125 C4.125 4.125 4.125 4.125 4 7.125 C3 8.125 3 8.125 0 8.25 C-3 8.125 -3 8.125 -4 7.125 C-4.125 4.125 -4.125 4.125 -4 1.125 C-3 0.125 -3 0.125 0 0 Z " fill="#FFFFFF" transform="translate(74,21.875)"/>
</svg>
