<?xml version="1.0" encoding="UTF-8"?>
<svg version="1.1" xmlns="http://www.w3.org/2000/svg" width="94" height="99">
<path d="M0 0 C4.40026185 1.58538846 6.59821736 4.99568844 9.125 8.765625 C9.78113281 9.72984375 10.43726562 10.6940625 11.11328125 11.6875 C14.84593869 17.58195704 17.33216394 21.76407415 16.125 28.765625 C15.15612419 30.78088669 14.1608679 32.78396466 13.125 34.765625 C13.51208639 38.11005144 14.81215901 39.87273622 17.07421875 42.296875 C17.97624023 43.26560547 17.97624023 43.26560547 18.89648438 44.25390625 C19.52876953 44.91777344 20.16105469 45.58164062 20.8125 46.265625 C21.42544922 46.92949219 22.03839844 47.59335937 22.66992188 48.27734375 C26.20964109 52.03853002 29.57990964 55.27040969 34.125 57.765625 C36.83975105 57.19650711 36.83975105 57.19650711 39.125 55.765625 C44.33965704 54.02740599 48.03502535 53.82022707 53.03515625 56.08203125 C68.76280374 64.96984216 68.76280374 64.96984216 70.8203125 70.703125 C71.19215248 74.84186562 69.91647443 77.54147438 67.5625 80.890625 C66.44438571 82.20635949 65.29810314 83.49867361 64.125 84.765625 C63.60679688 85.37148437 63.08859375 85.97734375 62.5546875 86.6015625 C59.23973184 90.01260383 56.64903313 91.1868967 51.875 91.390625 C36.06350105 90.37817207 24.016719 79.97837604 13.02734375 69.5078125 C11.16054182 67.74402387 9.25871799 66.01621275 7.31640625 64.3359375 C-4.91747368 53.75059458 -18.02435929 38.8821402 -20.2109375 22.203125 C-20.32460917 15.11001262 -18.74234125 11.908231 -13.921875 6.625 C-9.69854625 2.40167125 -6.20508699 -0.64636323 0 0 Z M-8.5 10.515625 C-9.09039063 11.02609375 -9.68078125 11.5365625 -10.2890625 12.0625 C-13.12010574 15.10273363 -13.875 17.0887459 -13.875 21.265625 C-11.38331069 36.67400257 1.54850889 48.52200816 11.80175781 59.36328125 C12.87399205 60.49961215 13.93486824 61.64665321 14.9921875 62.796875 C24.24130313 72.55216114 38.21024304 84.31237734 52.15625 85.0703125 C55.90120518 84.4907361 57.57162025 82.50138902 60.125 79.765625 C60.764375 79.12625 61.40375 78.486875 62.0625 77.828125 C63.64268462 74.76070779 63.08044113 73.03851909 62.125 69.765625 C59.66989348 67.30915882 59.66989348 67.30915882 56.5 65.390625 C55.47648437 64.70226562 54.45296875 64.01390625 53.3984375 63.3046875 C49.64245896 61.53875009 47.22917231 61.36105695 43.125 61.765625 C42.135 62.28125 41.145 62.796875 40.125 63.328125 C36.02791674 65.29131073 34.4606156 65.2108302 30.125 63.765625 C26.53412449 61.02856643 23.36667482 57.90133125 20.125 54.765625 C18.33734269 53.19853947 16.54578872 51.63588576 14.75 50.078125 C6.46214497 42.55911186 6.46214497 42.55911186 5.6875 36.140625 C6.15806852 32.51052496 6.96389391 31.5570537 9.125 28.765625 C9.6822089 23.70008956 8.43898322 20.86859138 5.8125 16.578125 C5.19761719 15.55332031 4.58273438 14.52851563 3.94921875 13.47265625 C1.85930721 10.30488615 1.85930721 10.30488615 -0.875 7.765625 C-5.13225195 7.765625 -5.54163939 7.88307503 -8.5 10.515625 Z " fill="#FFFFFF" transform="translate(19.875,3.234375)"/>
</svg>
