<?xml version="1.0" encoding="UTF-8"?>
<svg version="1.1" xmlns="http://www.w3.org/2000/svg" width="100" height="100">
<path d="M0 0 C9.58098396 8.140365 16.41689424 17.49272302 17.48828125 30.36328125 C17.53210152 44.19587992 14.50064722 54.90141426 5.1875 65.4375 C-4.14400515 74.24593871 -15.81502688 77.04551873 -28.2265625 76.98046875 C-32.31682298 76.71758709 -35.78683187 75.88225876 -39.62890625 74.50390625 C-45.56986405 72.45273477 -49.47820831 73.11632156 -55.4375 74.6875 C-63.49690594 76.75 -63.49690594 76.75 -66.8125 76.75 C-65.09357664 66.63761044 -65.09357664 66.63761044 -63.625 62 C-62.27485793 56.59943173 -63.61716628 52.31032968 -65.375 47.1875 C-68.71389706 36.38131592 -67.51569642 25.19005827 -62.5234375 15.16015625 C-56.27869659 4.05653939 -48.44637458 -1.38192482 -36.8125 -6.25 C-24.36444306 -9.63071248 -10.39165698 -7.65793272 0 0 Z M-51.9375 16.125 C-58.13641691 24.80348367 -58.45651963 33.54490036 -56.8125 43.75 C-55.86842908 46.19571287 -55.86842908 46.19571287 -54.6875 48.375 C-52.03074921 53.50692508 -52.85961839 58.20878631 -53.8125 63.75 C-53.13445313 63.63140625 -52.45640625 63.5128125 -51.7578125 63.390625 C-45.26028008 62.49068976 -40.94720521 62.94188519 -35.00390625 65.7421875 C-27.91140465 69.00397968 -20.63166686 68.24018596 -13.3984375 65.84765625 C-4.02371828 61.868357 2.37143845 55.64560319 6.21484375 46.234375 C9.23354391 37.16436346 8.82475769 29.60294796 5.1875 20.75 C0.50891766 11.69891081 -6.29493727 6.16195645 -15.8125 2.75 C-30.50502484 -1.39404547 -42.34477082 5.40371444 -51.9375 16.125 Z " fill="#FFFFFF" transform="translate(74.8125,15.25)"/>
<path d="M0 0 C0.89690912 1.55002751 1.7668197 3.11569918 2.625 4.6875 C3.11226562 5.55761719 3.59953125 6.42773438 4.1015625 7.32421875 C5 10 5 10 4.2109375 12.64453125 C3.81132813 13.42183594 3.41171875 14.19914062 3 15 C2.67 15.99 2.34 16.98 2 18 C5.02939009 23.26478681 9.64535835 26.42565305 15 29 C15.66 29 16.32 29 17 29 C18.63676257 27.0399719 18.63676257 27.0399719 20 25 C24.97306516 25.49730652 28.63799813 26.55302334 33 29 C32.77407627 32.91601134 32.53572471 35.32602376 30.0625 38.4375 C24.8734994 41.08494929 20.07265626 40.71933503 14.48046875 39.41015625 C4.24128627 35.91109704 -4.19455686 27.61088628 -9 18 C-10.78531144 13.44860518 -11.62337987 9.7149201 -9.8125 5.0625 C-7.12130124 0.5153021 -5.07471365 -0.27430885 0 0 Z " fill="#FFFFFF" transform="translate(39,30)"/>
</svg>
